#N canvas 545 194 959 684 10;
#X obj 322 515 dac~;
#X obj 247 128 mtof;
#X obj 328 436 *~;
#X text 42 185 Grundfrequenz & Modulationsfrequenz(gleichabstandig)
;
#X obj 131 276 osc~;
#X text 592 276 ADSR;
#X obj 252 29 inlet;
#X obj 252 67 unpack f f;
#X obj 212 222 osc~;
#X obj 223 331 osc~;
#X obj 222 291 +~;
#X obj 209 358 *~;
#X obj 252 97 + 12;
#X text 269 249 Modulationsindex (Anzahl Seitenbänder);
#X obj 219 250 *~ 1400;
#X text 35 16 Ein Harmonicähnlicher Klang;
#X obj 284 387 vcf~ 0.8;
#X obj 490 301 adsr 0.6 65 40 45 30;
#X obj 292 280 * 1;
#X obj 328 465 *~ 0.9;
#X connect 1 0 8 0;
#X connect 1 0 4 0;
#X connect 1 0 18 0;
#X connect 2 0 19 0;
#X connect 4 0 11 0;
#X connect 6 0 7 0;
#X connect 7 0 12 0;
#X connect 7 1 17 0;
#X connect 8 0 14 0;
#X connect 9 0 11 1;
#X connect 10 0 9 0;
#X connect 10 0 16 1;
#X connect 11 0 16 0;
#X connect 12 0 1 0;
#X connect 14 0 10 0;
#X connect 16 0 2 0;
#X connect 17 0 2 1;
#X connect 18 0 10 1;
#X connect 19 0 0 0;
#X connect 19 0 0 1;
