#N canvas 566 178 768 600 10;
#X obj 247 128 mtof;
#X obj 328 436 *~;
#X text 42 185 Grundfrequenz & Modulationsfrequenz(gleichabstandig)
;
#X obj 131 276 osc~;
#X text 592 276 ADSR;
#X obj 252 29 inlet;
#X obj 252 67 unpack f f;
#X obj 212 222 osc~;
#X obj 219 330 osc~;
#X obj 218 299 +~;
#X obj 203 358 *~;
#X text 269 249 Modulationsindex (Anzahl Seitenbänder);
#X obj 328 501 throw~ DAC;
#X obj 328 465 *~ 0.6;
#X obj 490 301 adsr 0.6 65 40 45 30;
#X text 35 16 Ein Harmonikaähnlicher Klang;
#X obj 252 97 + 12;
#X obj 310 275 * 1;
#X obj 217 250 *~ 1300;
#X obj 290 388 vcf~ 0.2;
#X connect 0 0 7 0;
#X connect 0 0 3 0;
#X connect 0 0 17 0;
#X connect 1 0 13 0;
#X connect 3 0 10 0;
#X connect 5 0 6 0;
#X connect 6 0 16 0;
#X connect 6 1 14 0;
#X connect 7 0 18 0;
#X connect 8 0 10 1;
#X connect 9 0 8 0;
#X connect 9 0 19 1;
#X connect 10 0 19 0;
#X connect 13 0 12 0;
#X connect 14 0 1 1;
#X connect 16 0 0 0;
#X connect 17 0 9 1;
#X connect 18 0 9 0;
#X connect 19 0 1 0;
