#N canvas 439 137 702 694 10;
#X obj 331 131 mtof;
#X obj 331 40 inlet;
#X obj 331 74 unpack f f;
#X obj 264 393 osc~;
#X obj 334 240 osc~;
#X text 645 330 ADSR;
#X obj 349 504 *~;
#X text 15 239 Grundfrequenz & Modulationsfrequenz(gleichabstandig)
;
#X obj 247 363 +~;
#X text 259 314 <-- Anzahl der Seitenbänder;
#X obj 350 539 throw~ DAC;
#X obj 552 349 adsr 0.8 20 30 35 20;
#X obj 304 448 *~ 0.5;
#X obj 214 319 *~ 200;
#X connect 0 0 4 0;
#X connect 0 0 8 1;
#X connect 1 0 2 0;
#X connect 2 0 0 0;
#X connect 2 1 11 0;
#X connect 3 0 12 0;
#X connect 4 0 13 0;
#X connect 6 0 10 0;
#X connect 8 0 3 0;
#X connect 11 0 6 1;
#X connect 12 0 6 0;
#X connect 13 0 8 0;
