#N canvas 398 64 959 684 10;
#X obj 266 522 dac~;
#X obj 252 125 mtof;
#X obj 424 405 *~;
#X obj 262 462 +~;
#X obj 424 344 +~;
#X text 34 173 Grundfrequenz & Modulationsfrequenz(gleichabstandig)
;
#X obj 383 287 osc~;
#X obj 423 373 osc~;
#X text 533 359 ADSR;
#X obj 256 26 inlet;
#X obj 250 67 unpack f f;
#X obj 175 379 osc~;
#X obj 137 288 osc~;
#X obj 174 348 +~;
#X obj 186 424 *~;
#X text 188 315 <-- Anzahl der Seitenbänder -->;
#X text -56 234 Zweite Spur macht es etwas fetter;
#X obj 383 317 *~ 300;
#X obj 137 317 *~ 400;
#X obj 243 407 adsr 0.4 20 10 50 30;
#X obj 472 381 adsr 0.8 10 140 20 20;
#X connect 1 0 6 0;
#X connect 1 0 4 1;
#X connect 1 0 12 0;
#X connect 1 0 13 1;
#X connect 2 0 3 1;
#X connect 3 0 0 0;
#X connect 3 0 0 1;
#X connect 4 0 7 0;
#X connect 6 0 17 0;
#X connect 7 0 2 0;
#X connect 9 0 10 0;
#X connect 10 0 1 0;
#X connect 10 1 19 0;
#X connect 10 1 20 0;
#X connect 11 0 14 0;
#X connect 12 0 18 0;
#X connect 13 0 11 0;
#X connect 14 0 3 0;
#X connect 17 0 4 0;
#X connect 18 0 13 0;
#X connect 19 0 14 1;
#X connect 20 0 2 1;
