#N canvas 481 119 702 694 10;
#X obj 252 125 mtof;
#X obj 404 438 *~;
#X text 34 173 Grundfrequenz & Modulationsfrequenz(gleichabstandig)
;
#X obj 383 287 osc~;
#X text 533 354 ADSR;
#X obj 256 26 inlet;
#X obj 250 67 unpack f f;
#X obj 175 379 osc~;
#X obj 137 288 osc~;
#X obj 174 348 +~;
#X obj 186 424 *~;
#X text 188 315 <-- Anzahl der Seitenbänder -->;
#X text -6 244 Zweite Spur macht es etwas fetter;
#X obj 257 539 dac~;
#X obj 389 359 +~;
#X obj 393 389 osc~;
#X obj 397 321 *~ 600;
#X obj 139 316 *~ 200;
#X obj 243 404 adsr 0.5 20 20 40 20;
#X obj 471 376 adsr 0.6 20 10 40 40;
#X obj 304 500 *~ 0.85;
#X obj 228 499 *~ 0.75;
#X connect 0 0 3 0;
#X connect 0 0 9 1;
#X connect 0 0 14 0;
#X connect 0 0 8 0;
#X connect 1 0 20 0;
#X connect 3 0 16 0;
#X connect 5 0 6 0;
#X connect 6 0 0 0;
#X connect 6 1 18 0;
#X connect 6 1 19 0;
#X connect 7 0 10 0;
#X connect 8 0 17 0;
#X connect 9 0 7 0;
#X connect 10 0 21 0;
#X connect 14 0 15 0;
#X connect 15 0 1 0;
#X connect 16 0 14 1;
#X connect 17 0 9 0;
#X connect 18 0 10 1;
#X connect 19 0 1 1;
#X connect 20 0 13 1;
#X connect 21 0 13 0;
