#N canvas 47 81 959 684 10;
#X obj 322 515 dac~;
#X obj 252 125 mtof;
#X obj 333 434 *~;
#X floatatom 216 214 5 0 0 0 - - -;
#X obj 258 399 +~;
#X obj 256 332 +~;
#X obj 196 295 *~ 2940;
#X obj 121 362 noise~;
#X text 253 205 Modulationsindex (Anzahl Seitenbänder);
#X text 42 185 Grundfrequenz & Modulationsfrequenz(gleichabstandig)
;
#X obj 128 453 vcf~;
#X floatatom 138 400 5 0 0 0 - - -;
#X obj 196 262 osc~;
#X obj 256 369 osc~;
#X text 604 166 ADSR;
#X obj 501 196 adsr 1 0.25 1 20 40;
#X obj 256 26 inlet;
#X obj 250 67 unpack f f;
#X connect 1 0 3 0;
#X connect 2 0 0 1;
#X connect 2 0 0 0;
#X connect 3 0 5 1;
#X connect 3 0 12 0;
#X connect 4 0 2 0;
#X connect 5 0 13 0;
#X connect 6 0 5 0;
#X connect 7 0 10 0;
#X connect 11 0 10 2;
#X connect 12 0 6 0;
#X connect 13 0 4 1;
#X connect 15 0 2 1;
#X connect 16 0 17 0;
#X connect 17 0 1 0;
#X connect 17 1 15 0;
