#N canvas 341 132 702 694 10;
#X obj 331 131 mtof;
#X obj 331 40 inlet;
#X obj 331 74 unpack f f;
#X obj 272 395 osc~;
#X obj 334 240 osc~;
#X obj 246 363 +~;
#X text 259 315 <-- Anzahl der Seitenbänder -->;
#X text 31 292 Zweite Spur macht es etwas fetter;
#X obj 334 584 dac~;
#X obj 431 360 +~;
#X obj 414 389 osc~;
#X obj 459 321 *~ 600;
#X obj 338 473 +~;
#X obj 547 350 adsr 0.6 10 20 40 40;
#X text 632 331 ADSR;
#X obj 339 534 *~;
#X obj 391 428 *~ 0.7;
#X text 15 239 Grundfrequenz & Modulationsfrequenz(gleichabstandig)
;
#X obj 213 318 *~ 200;
#X connect 0 0 4 0;
#X connect 0 0 9 0;
#X connect 0 0 5 1;
#X connect 1 0 2 0;
#X connect 2 0 0 0;
#X connect 2 1 13 0;
#X connect 3 0 12 0;
#X connect 4 0 11 0;
#X connect 4 0 18 0;
#X connect 5 0 3 0;
#X connect 9 0 10 0;
#X connect 10 0 16 0;
#X connect 11 0 9 1;
#X connect 12 0 15 0;
#X connect 13 0 15 1;
#X connect 15 0 8 0;
#X connect 15 0 8 1;
#X connect 16 0 12 1;
#X connect 18 0 5 0;
