#N canvas 602 42 815 595 10;
#X declare -lib mrpeach;
#X obj 317 332 tenor;
#X obj 171 46 notein;
#X obj 165 81 pack f f;
#X obj 689 24 import mrpeach;
#X obj 31 31 udpreceive 7777;
#X obj 31 58 unpackOSC;
#X obj 31 99 routeOSC /note;
#X obj 316 354 tenor;
#X obj 316 376 tenor;
#X obj 318 275 pack f f f;
#X obj 316 399 tenor;
#X text 28 10 OSC Verbindung;
#X text 168 23 MIDI Eingang zum Testen;
#X obj 30 131 route 1 2 3 4;
#X obj 317 306 route 1 2 3 4;
#X obj 56 278 pack f f f;
#X obj 57 404 bass;
#X obj 55 335 bass;
#X obj 56 359 bass;
#X obj 56 382 bass;
#X obj 55 309 route 1 2 3 4 5 6 7 8;
#X obj 100 408 bass;
#X obj 101 339 bass;
#X obj 101 362 bass;
#X obj 100 385 bass;
#X obj 167 247 print channel;
#X obj 316 233 poly 4 1;
#X obj 54 236 poly 8 1;
#X connect 1 0 2 0;
#X connect 1 1 2 1;
#X connect 2 0 27 0;
#X connect 4 0 5 0;
#X connect 5 0 6 0;
#X connect 6 0 13 0;
#X connect 9 0 14 0;
#X connect 13 0 27 0;
#X connect 13 1 26 0;
#X connect 14 0 0 0;
#X connect 14 1 7 0;
#X connect 14 2 8 0;
#X connect 14 3 10 0;
#X connect 15 0 20 0;
#X connect 20 0 17 0;
#X connect 20 1 18 0;
#X connect 20 2 19 0;
#X connect 20 3 16 0;
#X connect 20 4 22 0;
#X connect 20 5 23 0;
#X connect 20 6 24 0;
#X connect 20 7 21 0;
#X connect 26 0 9 0;
#X connect 26 1 9 1;
#X connect 26 2 9 2;
#X connect 27 0 15 0;
#X connect 27 1 15 1;
#X connect 27 2 15 2;
