#N canvas 376 144 815 595 10;
#X obj 25 360 tenor;
#X obj 33 184 route 10 1 2 3;
#X obj 174 221 print message;
#X obj 34 84 udpreceive 7777;
#X obj 34 111 unpackOSC;
#X obj 34 152 routeOSC /note;
#X obj 100 366 tenor;
#X obj 176 368 tenor;
#X obj 23 224 poly 3;
#X floatatom 59 298 5 0 0 0 - - -;
#X floatatom 116 296 5 0 0 0 - - -;
#X connect 1 0 2 0;
#X connect 1 0 8 0;
#X connect 3 0 4 0;
#X connect 4 0 5 0;
#X connect 5 0 1 0;
#X connect 8 1 9 0;
#X connect 8 2 10 0;
#X connect 9 0 0 0;
#X connect 10 0 0 1;
