#N canvas 489 275 666 534 10;
#X obj 81 52 inlet;
#X obj 80 86 unpack f f;
#X obj 76 134 mtof;
#X obj 49 191 osc~;
#X obj 78 111 + 24;
#X text 187 34 Ganz einfacher Glockenspiel Klang;
#X obj 108 273 *~;
#X obj 99 321 dac~;
#X obj 171 187 adsr 0.7 3 360 0 10;
#X connect 0 0 1 0;
#X connect 1 0 4 0;
#X connect 1 1 8 0;
#X connect 2 0 3 0;
#X connect 3 0 6 0;
#X connect 4 0 2 0;
#X connect 6 0 7 0;
#X connect 6 0 7 1;
#X connect 8 0 6 1;
