#N canvas 448 22 666 534 10;
#X obj 134 327 dac~;
#X obj 81 52 inlet;
#X obj 80 86 unpack f f;
#X obj 76 134 mtof;
#X obj 138 280 *~;
#X obj 49 191 osc~;
#X obj 78 111 + 24;
#X text 187 34 Ganz einfacher Glockenspiel Klang;
#X obj 170 188 adsr 0.6 2 300 0 200;
#X connect 1 0 2 0;
#X connect 2 0 6 0;
#X connect 2 1 8 0;
#X connect 3 0 5 0;
#X connect 4 0 0 0;
#X connect 4 0 0 1;
#X connect 5 0 4 0;
#X connect 6 0 3 0;
#X connect 8 0 4 1;
