#N canvas 935 139 418 370 10;
#X obj -158 50 inlet;
#X obj -158 84 unpack f f;
#X obj -162 132 mtof;
#X obj -186 170 osc~;
#X obj -160 109 + 24;
#X obj -130 243 *~;
#X text -191 6 Einfacher Glockenspiel Klang;
#X obj -130 295 throw~ DAC;
#X obj -131 170 * 0.9;
#X obj -44 159 adsr 0.6 3 340 2 340;
#X obj -166 205 bp~ 100 7;
#X connect 0 0 1 0;
#X connect 1 0 4 0;
#X connect 1 1 9 0;
#X connect 2 0 3 0;
#X connect 2 0 8 0;
#X connect 3 0 10 0;
#X connect 4 0 2 0;
#X connect 5 0 7 0;
#X connect 8 0 10 1;
#X connect 9 0 5 1;
#X connect 10 0 5 0;
