#N canvas 837 263 666 534 10;
#X obj -167 51 inlet;
#X obj -168 85 unpack f f;
#X obj -172 133 mtof;
#X obj -199 190 osc~;
#X obj -170 110 + 24;
#X obj -140 272 *~;
#X obj -149 320 dac~;
#X text -248 18 Einfacher Glockenspiel Klang;
#X obj -78 185 adsr 0.7 3 280 5 180;
#X connect 0 0 1 0;
#X connect 1 0 4 0;
#X connect 1 1 8 0;
#X connect 2 0 3 0;
#X connect 3 0 5 0;
#X connect 4 0 2 0;
#X connect 5 0 6 0;
#X connect 5 0 6 1;
#X connect 8 0 5 1;
