#N canvas 322 221 815 595 10;
#X declare -lib mrpeach;
#X obj 168 45 notein;
#X obj 162 80 pack f f;
#X obj 639 21 import mrpeach;
#X obj 31 31 udpreceive 7777;
#X obj 31 58 unpackOSC;
#X obj 31 99 routeOSC /note;
#X obj 231 279 pack f f f;
#X obj 229 403 tenor;
#X text 28 10 OSC Verbindung;
#X text 165 22 MIDI Eingang zum Testen;
#X obj 30 131 route 1 2 3 4;
#X obj 230 310 route 1 2 3 4;
#X obj 56 278 pack f f f;
#X obj 55 309 route 1 2 3 4 5 6 7 8;
#X obj 229 237 poly 4;
#X obj 100 408 bass;
#X obj 54 236 poly 8 1;
#X obj 248 161 bass;
#X obj 57 404 bass;
#X obj 55 335 bass;
#X obj 56 359 bass;
#X obj 56 382 bass;
#X obj 101 339 bass;
#X obj 101 362 bass;
#X obj 100 385 bass;
#X obj 230 336 tenor;
#X obj 229 358 tenor;
#X obj 229 380 tenor;
#X connect 0 0 1 0;
#X connect 0 1 1 1;
#X connect 1 0 17 0;
#X connect 3 0 4 0;
#X connect 4 0 5 0;
#X connect 5 0 10 0;
#X connect 6 0 11 0;
#X connect 10 0 16 0;
#X connect 10 1 14 0;
#X connect 11 0 25 0;
#X connect 11 1 26 0;
#X connect 11 2 27 0;
#X connect 11 3 7 0;
#X connect 12 0 13 0;
#X connect 13 0 19 0;
#X connect 13 1 20 0;
#X connect 13 2 21 0;
#X connect 13 3 18 0;
#X connect 13 4 22 0;
#X connect 13 5 23 0;
#X connect 13 6 24 0;
#X connect 13 7 15 0;
#X connect 14 0 6 0;
#X connect 14 1 6 1;
#X connect 14 2 6 2;
#X connect 16 0 12 0;
#X connect 16 1 12 1;
#X connect 16 2 12 2;
