#N canvas 208 84 815 595 10;
#X declare -lib mrpeach;
#X obj 589 295 notein;
#X obj 590 322 pack f f;
#X obj 698 -98 import mrpeach;
#X obj 30 -75 udpreceive 7777;
#X obj 30 -48 unpackOSC;
#X obj 30 -7 routeOSC /note;
#X obj 210 174 pack f f f;
#X text 27 -96 OSC Verbindung;
#X text 586 272 MIDI Eingang zum Testen;
#X obj 29 25 route 1 2 3 4;
#X obj 55 172 pack f f f;
#X obj 54 203 route 1 2 3 4 5 6 7 8;
#X obj 99 302 bass;
#X obj 54 130 poly 8;
#X text 535 -9 MIDI Controller->OSC->Ruby Brücke;
#X text 446 -64 Update auf OSX 10.6 hat die Ruby-MIDI-Schnittstelle
kaputt gemacht. Deshalb läuft hier einieges über OSC.;
#X obj 667 16 ctlin;
#X obj 586 193 udpsend;
#X msg 656 150 connect localhost 7778;
#X obj 586 156 packOSC;
#X obj 667 41 pack 0 0 0;
#X obj 656 128 loadbang;
#X obj 586 220 tgl 15 0 empty empty empty 17 7 0 10 -262144 -1 -1 1
1;
#X text 520 219 Verbunden:;
#X msg 667 65 send /control \$1 \$2 \$3;
#X obj 536 41 pack 0 0 0;
#X msg 536 66 send /note \$1 \$2 \$3;
#X obj 536 16 notein;
#X msg 656 172 disconnect;
#X obj 264 303 tenor;
#X obj 209 205 route 1 2 3 4 5 6 7 8;
#X obj 208 132 poly 8 1;
#X obj 356 176 pack f f f;
#X obj 355 207 route 1 2 3 4 5 6 7 8;
#X obj 354 134 poly 8 1;
#X obj 410 305 sopran;
#X obj 56 298 bass;
#X obj 54 229 bass;
#X obj 55 253 bass;
#X obj 55 276 bass;
#X obj 100 233 bass;
#X obj 100 256 bass;
#X obj 99 279 bass;
#X obj 355 233 sopran;
#X obj 354 255 sopran;
#X obj 354 277 sopran;
#X obj 354 300 sopran;
#X obj 410 282 sopran;
#X obj 409 260 sopran;
#X obj 409 238 sopran;
#X obj 208 298 tenor;
#X obj 209 231 tenor;
#X obj 208 253 tenor;
#X obj 208 275 tenor;
#X obj 265 236 tenor;
#X obj 264 258 tenor;
#X obj 264 280 tenor;
#X connect 0 0 1 0;
#X connect 0 1 1 1;
#X connect 3 0 4 0;
#X connect 4 0 5 0;
#X connect 5 0 9 0;
#X connect 6 0 30 0;
#X connect 9 0 13 0;
#X connect 9 1 31 0;
#X connect 9 3 34 0;
#X connect 10 0 11 0;
#X connect 11 0 37 0;
#X connect 11 1 38 0;
#X connect 11 2 39 0;
#X connect 11 3 36 0;
#X connect 11 4 40 0;
#X connect 11 5 41 0;
#X connect 11 6 42 0;
#X connect 11 7 12 0;
#X connect 13 0 10 0;
#X connect 13 1 10 1;
#X connect 13 2 10 2;
#X connect 16 0 20 0;
#X connect 16 1 20 1;
#X connect 16 2 20 2;
#X connect 17 0 22 0;
#X connect 18 0 17 0;
#X connect 19 0 17 0;
#X connect 20 0 24 0;
#X connect 21 0 18 0;
#X connect 24 0 19 0;
#X connect 25 0 26 0;
#X connect 26 0 19 0;
#X connect 27 0 25 0;
#X connect 27 1 25 1;
#X connect 27 2 25 2;
#X connect 28 0 17 0;
#X connect 30 0 51 0;
#X connect 30 1 52 0;
#X connect 30 2 53 0;
#X connect 30 3 50 0;
#X connect 30 4 54 0;
#X connect 30 5 55 0;
#X connect 30 6 56 0;
#X connect 30 7 29 0;
#X connect 31 0 6 0;
#X connect 31 1 6 1;
#X connect 31 2 6 2;
#X connect 32 0 33 0;
#X connect 33 0 43 0;
#X connect 33 1 44 0;
#X connect 33 2 45 0;
#X connect 33 3 46 0;
#X connect 33 4 49 0;
#X connect 33 5 48 0;
#X connect 33 6 47 0;
#X connect 33 7 35 0;
#X connect 34 0 32 0;
#X connect 34 1 32 1;
#X connect 34 2 32 2;
