#N canvas 262 162 1079 656 10;
#X declare -lib mrpeach;
#X obj -89 -77 udpreceive 7777;
#X obj 64 -16 unpackOSC;
#X obj 64 8 routeOSC /note;
#X obj 215 136 pack f f f;
#X obj 66 40 route 1 2 3 4;
#X obj 68 123 pack f f f;
#X obj 68 147 route 1 2 3 4 5 6 7 8;
#X obj 67 81 poly 8;
#X text -340 191 MIDI Controller->OSC->Ruby Brücke;
#X obj -215 233 ctlin;
#X obj -293 410 udpsend;
#X msg -355 -91 connect localhost 7778;
#X obj -296 368 packOSC;
#X obj -355 -119 loadbang;
#X obj -89 -99 tgl 15 0 empty empty empty 17 7 0 10 -262144 -1 -1 1
1;
#X msg -215 329 send /control \$1 \$2 \$3;
#X obj -302 305 pack 0 0 0;
#X msg -349 330 send /note \$1 \$2 \$3;
#X obj -264 233 notein;
#X msg -216 368 disconnect;
#X obj 215 160 route 1 2 3 4 5 6 7 8;
#X obj 517 123 pack f f f;
#X obj 517 147 route 1 2 3 4 5 6 7 8;
#X obj 365 129 pack f f f;
#X obj 365 153 route 1 2 3 4 5 6 7 8;
#X obj -293 434 s _connected;
#X obj 9 -106 r _connected;
#X obj -355 -67 s _connect;
#X obj -216 392 r _connect;
#X obj -215 305 pack 0 0 0;
#X obj -150 285 int;
#X obj -150 261 maxlib/scale 0 127 0 11;
#X text -151 -77 Ok? --->;
#X text -359 -161 Zwölftonspielzeug;
#X obj 515 81 poly 8;
#X text -184 -100 Verbunden? -->;
#X text -359 -140 ------------------;
#X obj 214 264 tenor;
#X obj -81 -11 catch~ DAC;
#X obj -91 45 output~;
#X obj 67 252 bass;
#X obj 270 270 tenor;
#X obj 214 240 tenor;
#X obj 214 192 tenor;
#X obj 214 216 tenor;
#X obj 270 198 tenor;
#X obj 270 222 tenor;
#X obj 270 246 tenor;
#X obj 420 264 alt;
#X obj 570 256 sopran;
#X obj 113 256 bass;
#X obj 67 180 bass;
#X obj 67 204 bass;
#X obj 67 228 bass;
#X obj 113 184 bass;
#X obj 113 208 bass;
#X obj 113 232 bass;
#X obj 365 94 poly 8;
#X obj 213 94 poly 8;
#X obj 363 257 alt;
#X obj 365 177 alt;
#X obj 365 201 alt;
#X obj 363 233 alt;
#X obj 420 240 alt;
#X obj 420 216 alt;
#X obj 420 192 alt;
#X text -231 50 Gesamtlautstärke --->;
#X obj -6 4 loadbang;
#X obj -81 13 *~ 0.7;
#X obj 516 252 sopran;
#X obj 516 180 sopran;
#X obj 516 204 sopran;
#X obj 516 228 sopran;
#X obj 570 232 sopran;
#X obj 570 208 sopran;
#X obj 570 184 sopran;
#X text 64 -38 OSC Verbindung zum Empfang von Noten;
#X msg 3 49 1;
#X obj 524 -139 import mrpeach;
#X obj -6 27 delay 1000;
#X connect 0 0 1 0;
#X connect 1 0 2 0;
#X connect 2 0 4 0;
#X connect 3 0 20 0;
#X connect 4 0 7 0;
#X connect 4 1 58 0;
#X connect 4 2 57 0;
#X connect 4 3 34 0;
#X connect 5 0 6 0;
#X connect 6 0 51 0;
#X connect 6 1 52 0;
#X connect 6 2 53 0;
#X connect 6 3 40 0;
#X connect 6 4 54 0;
#X connect 6 5 55 0;
#X connect 6 6 56 0;
#X connect 6 7 50 0;
#X connect 7 0 5 0;
#X connect 7 1 5 1;
#X connect 7 2 5 2;
#X connect 9 0 31 0;
#X connect 9 1 29 1;
#X connect 9 2 29 2;
#X connect 10 0 25 0;
#X connect 11 0 27 0;
#X connect 12 0 10 0;
#X connect 13 0 11 0;
#X connect 15 0 12 0;
#X connect 16 0 17 0;
#X connect 17 0 12 0;
#X connect 18 0 16 0;
#X connect 18 1 16 1;
#X connect 18 2 16 2;
#X connect 19 0 10 0;
#X connect 20 0 43 0;
#X connect 20 1 44 0;
#X connect 20 2 42 0;
#X connect 20 3 37 0;
#X connect 20 4 45 0;
#X connect 20 5 46 0;
#X connect 20 6 47 0;
#X connect 20 7 41 0;
#X connect 21 0 22 0;
#X connect 22 0 70 0;
#X connect 22 1 71 0;
#X connect 22 2 72 0;
#X connect 22 3 69 0;
#X connect 22 4 75 0;
#X connect 22 5 74 0;
#X connect 22 6 73 0;
#X connect 22 7 49 0;
#X connect 23 0 24 0;
#X connect 24 0 60 0;
#X connect 24 1 61 0;
#X connect 24 2 62 0;
#X connect 24 3 59 0;
#X connect 24 4 65 0;
#X connect 24 5 64 0;
#X connect 24 6 63 0;
#X connect 24 7 48 0;
#X connect 26 0 14 0;
#X connect 28 0 10 0;
#X connect 29 0 15 0;
#X connect 30 0 29 0;
#X connect 31 0 30 0;
#X connect 34 0 21 0;
#X connect 34 1 21 1;
#X connect 34 2 21 2;
#X connect 38 0 68 0;
#X connect 57 0 23 0;
#X connect 57 1 23 1;
#X connect 57 2 23 2;
#X connect 58 0 3 0;
#X connect 58 1 3 1;
#X connect 58 2 3 2;
#X connect 67 0 79 0;
#X connect 68 0 39 0;
#X connect 68 0 39 1;
#X connect 77 0 39 2;
#X connect 79 0 77 0;
#X connect 79 0 39 2;
