#N canvas 189 94 937 687 10;
#X declare -lib mrpeach;
#X obj 372 345 notein;
#X obj 373 372 pack f f;
#X obj 359 -121 import mrpeach;
#X obj 33 -100 udpreceive 7777;
#X obj 33 -73 unpackOSC;
#X obj 33 -32 routeOSC /note;
#X obj 188 120 pack f f f;
#X obj 32 0 route 1 2 3 4;
#X obj 33 118 pack f f f;
#X obj 32 149 route 1 2 3 4 5 6 7 8;
#X obj 77 248 bass;
#X obj 32 76 poly 8;
#X text -364 140 MIDI Controller->OSC->Ruby Brücke;
#X obj -229 168 ctlin;
#X obj -293 301 udpsend;
#X msg -323 -63 connect localhost 7778;
#X obj -314 259 packOSC;
#X obj -229 193 pack 0 0 0;
#X obj -337 -95 loadbang;
#X obj -105 -61 tgl 15 0 empty empty empty 17 7 0 10 -262144 -1 -1
1 1;
#X msg -229 217 send /control \$1 \$2 \$3;
#X obj -362 187 pack 0 0 0;
#X msg -362 212 send /note \$1 \$2 \$3;
#X obj -362 162 notein;
#X msg -215 245 disconnect;
#X obj 242 249 tenor;
#X obj 187 151 route 1 2 3 4 5 6 7 8;
#X obj 186 78 poly 8 1;
#X obj 334 122 pack f f f;
#X obj 333 153 route 1 2 3 4 5 6 7 8;
#X obj 332 80 poly 8 1;
#X obj 388 251 sopran;
#X obj 34 244 bass;
#X obj 32 175 bass;
#X obj 33 199 bass;
#X obj 33 222 bass;
#X obj 78 179 bass;
#X obj 78 202 bass;
#X obj 77 225 bass;
#X obj 333 179 sopran;
#X obj 332 201 sopran;
#X obj 332 223 sopran;
#X obj 332 246 sopran;
#X obj 388 228 sopran;
#X obj 387 206 sopran;
#X obj 387 184 sopran;
#X obj 191 321 pack f f f;
#X obj 190 352 route 1 2 3 4 5 6 7 8;
#X obj 191 288 poly 8 1;
#X obj 186 244 tenor;
#X obj 187 177 tenor;
#X obj 186 199 tenor;
#X obj 186 221 tenor;
#X obj 243 182 tenor;
#X obj 242 204 tenor;
#X obj 242 226 tenor;
#X obj 245 450 tenor;
#X obj 189 445 tenor;
#X obj 190 378 tenor;
#X obj 189 400 tenor;
#X obj 189 422 tenor;
#X obj 246 383 tenor;
#X obj 245 405 tenor;
#X obj 245 427 tenor;
#X text 30 -121 OSC Verbindung zum Noten empfangen;
#X text -362 85 Update auf OSX 10.6 hat die Ruby-MIDI-Schnittstelle
kaputt gemacht. Deshalb läuft hier alles über OSC.;
#X text 370 326 Test;
#X obj -293 332 s _connected;
#X obj -93 -94 r _connected;
#X obj -339 -28 s _connect;
#X obj -218 273 r _connect;
#X text -168 -61 Verbunden:;
#X connect 0 0 1 0;
#X connect 0 1 1 1;
#X connect 3 0 4 0;
#X connect 4 0 5 0;
#X connect 5 0 7 0;
#X connect 6 0 26 0;
#X connect 7 0 11 0;
#X connect 7 1 27 0;
#X connect 7 2 48 0;
#X connect 7 3 30 0;
#X connect 8 0 9 0;
#X connect 9 0 33 0;
#X connect 9 1 34 0;
#X connect 9 2 35 0;
#X connect 9 3 32 0;
#X connect 9 4 36 0;
#X connect 9 5 37 0;
#X connect 9 6 38 0;
#X connect 9 7 10 0;
#X connect 11 0 8 0;
#X connect 11 1 8 1;
#X connect 11 2 8 2;
#X connect 13 0 17 0;
#X connect 13 1 17 1;
#X connect 13 2 17 2;
#X connect 14 0 67 0;
#X connect 15 0 69 0;
#X connect 16 0 14 0;
#X connect 17 0 20 0;
#X connect 18 0 15 0;
#X connect 20 0 16 0;
#X connect 21 0 22 0;
#X connect 22 0 16 0;
#X connect 23 0 21 0;
#X connect 23 1 21 1;
#X connect 23 2 21 2;
#X connect 24 0 14 0;
#X connect 26 0 50 0;
#X connect 26 1 51 0;
#X connect 26 2 52 0;
#X connect 26 3 49 0;
#X connect 26 4 53 0;
#X connect 26 5 54 0;
#X connect 26 6 55 0;
#X connect 26 7 25 0;
#X connect 27 0 6 0;
#X connect 27 1 6 1;
#X connect 27 2 6 2;
#X connect 28 0 29 0;
#X connect 29 0 39 0;
#X connect 29 1 40 0;
#X connect 29 2 41 0;
#X connect 29 3 42 0;
#X connect 29 4 45 0;
#X connect 29 5 44 0;
#X connect 29 6 43 0;
#X connect 29 7 31 0;
#X connect 30 0 28 0;
#X connect 30 1 28 1;
#X connect 30 2 28 2;
#X connect 46 0 47 0;
#X connect 47 0 58 0;
#X connect 47 1 59 0;
#X connect 47 2 60 0;
#X connect 47 3 57 0;
#X connect 47 4 61 0;
#X connect 47 5 62 0;
#X connect 47 6 63 0;
#X connect 47 7 56 0;
#X connect 48 0 46 0;
#X connect 48 1 46 1;
#X connect 48 2 46 2;
#X connect 68 0 19 0;
#X connect 70 0 14 0;
