#N canvas 623 152 662 517 10;
#X obj 199 333 *~;
#X obj 66 134 mtof;
#X obj 85 305 *~;
#X text 412 62 Amplitudenmodulation;
#X obj 115 58 inlet;
#X obj 188 417 dac~;
#X obj 87 185 osc~;
#X obj 114 92 unpack f f;
#X obj 21 242 osc~ 1;
#X obj 97 272 osc~;
#X text 21 17 Ein Cellorgelton;
#X obj 201 368 *~ 0.8;
#X text 363 226 ADSR;
#X obj 95 241 +~;
#X obj 183 191 * 1;
#X obj 86 211 *~ 1000;
#X obj 261 244 adsr 0.7 80 245 25 60;
#X connect 0 0 11 0;
#X connect 1 0 6 0;
#X connect 1 0 8 0;
#X connect 1 0 14 0;
#X connect 2 0 0 0;
#X connect 4 0 7 0;
#X connect 6 0 15 0;
#X connect 7 0 1 0;
#X connect 7 1 16 0;
#X connect 8 0 2 0;
#X connect 9 0 2 1;
#X connect 11 0 5 1;
#X connect 11 0 5 0;
#X connect 13 0 9 0;
#X connect 14 0 13 1;
#X connect 15 0 13 0;
#X connect 16 0 0 1;
