#N canvas 311 457 813 668 10;
#X obj 199 333 *~;
#X obj 325 63 vsl 15 128 0 127 0 0 empty empty empty 0 -8 0 10 -262144
-1 -1 0 1;
#X floatatom 317 206 5 0 0 0 - - -;
#X text 314 38 Attack;
#X obj 370 63 vsl 15 128 0 127 0 0 empty empty empty 0 -8 0 10 -262144
-1 -1 0 1;
#X floatatom 362 207 5 0 0 0 - - -;
#X obj 417 64 vsl 15 128 0 127 0 0 empty empty empty 0 -8 0 10 -262144
-1 -1 0 1;
#X floatatom 409 207 5 0 0 0 - - -;
#X obj 464 62 vsl 15 128 0 2000 0 0 empty empty empty 0 -8 0 10 -262144
-1 -1 0 1;
#X floatatom 456 205 5 0 0 0 - - -;
#X text 358 39 Decay;
#X text 405 36 Sustain;
#X text 454 37 Release;
#X obj 97 272 osc~;
#X obj 94 241 +~ 0.5;
#X obj 43 236 osc~ 1;
#X floatatom 173 165 5 0 0 0 - - -;
#X floatatom 168 214 5 0 0 0 - - -;
#X obj 41 149 mtof;
#X obj 85 305 *~;
#X text 36 16 Amplitudenmodulation;
#X obj 92 352 vcf~ 10;
#X obj 88 182 osc~ 440;
#X obj 90 211 *~ 300;
#X obj 261 243 adsr 1 0.25 0.05 70 220;
#X obj 111 72 inlet;
#X obj 155 73 inlet;
#X text 90 46 pitch;
#X text 162 44 velocity (0=noteoff);
#X obj 181 418 dac~;
#X obj 91 138 print note;
#X connect 0 0 29 0;
#X connect 0 0 29 1;
#X connect 1 0 2 0;
#X connect 2 0 24 2;
#X connect 4 0 5 0;
#X connect 5 0 24 3;
#X connect 6 0 7 0;
#X connect 7 0 24 4;
#X connect 8 0 9 0;
#X connect 9 0 24 5;
#X connect 13 0 19 1;
#X connect 14 0 13 0;
#X connect 15 0 19 0;
#X connect 16 0 22 0;
#X connect 17 0 23 1;
#X connect 18 0 15 0;
#X connect 19 0 0 0;
#X connect 22 0 23 0;
#X connect 23 0 14 0;
#X connect 24 0 0 1;
#X connect 25 0 18 0;
#X connect 25 0 30 0;
#X connect 26 0 24 0;
