#N canvas 418 165 813 668 10;
#X obj 199 333 *~;
#X obj 325 63 vsl 15 128 0 127 0 0 empty empty empty 0 -8 0 10 -262144
-1 -1 0 1;
#X floatatom 317 206 5 0 0 0 - - -;
#X text 314 38 Attack;
#X obj 370 63 vsl 15 128 0 127 0 0 empty empty empty 0 -8 0 10 -262144
-1 -1 0 1;
#X floatatom 362 207 5 0 0 0 - - -;
#X obj 417 64 vsl 15 128 0 127 0 0 empty empty empty 0 -8 0 10 -262144
-1 -1 0 1;
#X floatatom 409 207 5 0 0 0 - - -;
#X obj 464 62 vsl 15 128 0 2000 0 0 empty empty empty 0 -8 0 10 -262144
-1 -1 0 1;
#X floatatom 456 205 5 0 0 0 - - -;
#X text 358 39 Decay;
#X text 405 36 Sustain;
#X text 454 37 Release;
#X obj 97 272 osc~;
#X obj 43 236 osc~ 1;
#X obj 41 149 mtof;
#X obj 85 305 *~;
#X text 322 12 Amplitudenmodulation;
#X obj 92 352 vcf~ 10;
#X obj 115 58 inlet;
#X obj 181 418 dac~;
#X obj 88 182 osc~;
#X text 96 20 pitch \, velocity pairs;
#X obj 114 92 unpack f f;
#X obj 89 212 *~ 300;
#X obj 94 241 +~ 2;
#X obj 261 243 adsr 0.5 0.25 0.05 70 200;
#X connect 0 0 20 0;
#X connect 0 0 20 1;
#X connect 1 0 2 0;
#X connect 4 0 5 0;
#X connect 6 0 7 0;
#X connect 8 0 9 0;
#X connect 13 0 16 1;
#X connect 14 0 16 0;
#X connect 15 0 14 0;
#X connect 15 0 21 0;
#X connect 16 0 0 0;
#X connect 19 0 23 0;
#X connect 21 0 24 0;
#X connect 23 0 15 0;
#X connect 23 1 26 0;
#X connect 24 0 25 0;
#X connect 25 0 13 0;
#X connect 26 0 0 1;
