#N canvas 751 116 813 668 10;
#X obj 199 333 *~;
#X obj 41 149 mtof;
#X obj 85 305 *~;
#X text 412 62 Amplitudenmodulation;
#X obj 115 58 inlet;
#X obj 181 418 dac~;
#X obj 88 182 osc~;
#X text 96 20 pitch \, velocity pairs;
#X obj 114 92 unpack f f;
#X obj 21 242 osc~ 1;
#X obj 97 272 osc~;
#X obj 94 241 +~ 0.5;
#X obj 89 212 *~ 1400;
#X obj 261 245 adsr 0.9 80 280 5 10;
#X connect 0 0 5 0;
#X connect 0 0 5 1;
#X connect 1 0 6 0;
#X connect 1 0 9 0;
#X connect 2 0 0 0;
#X connect 4 0 8 0;
#X connect 6 0 12 0;
#X connect 8 0 1 0;
#X connect 8 1 13 0;
#X connect 9 0 2 0;
#X connect 10 0 2 1;
#X connect 11 0 10 0;
#X connect 12 0 11 0;
#X connect 13 0 0 1;
